<svg xmlns="http://www.w3.org/2000/svg" xmlns:xlink="http://www.w3.org/1999/xlink" width="1080" zoomAndPan="magnify" viewBox="0 0 810 809.999993" height="1080" preserveAspectRatio="xMidYMid meet" version="1.0"><defs><g/></defs><g fill="#772943" fill-opacity="1"><g transform="translate(37.268694, 581.661831)"><g><path d="M 339.125 -136.6875 C 339.125 -87.5 325.113281 -51.273438 297.09375 -28.015625 C 269.070312 -4.765625 228.753906 6.859375 176.140625 6.859375 C 123.523438 6.859375 83.207031 -4.765625 55.1875 -28.015625 C 27.164062 -51.273438 13.15625 -87.5 13.15625 -136.6875 L 13.15625 -141.828125 L 131.53125 -141.828125 L 131.53125 -137.25 C 131.53125 -119.332031 134.863281 -106.5625 141.53125 -98.9375 C 148.207031 -91.3125 158.410156 -87.5 172.140625 -87.5 C 185.867188 -87.5 196.066406 -91.3125 202.734375 -98.9375 C 209.410156 -106.5625 212.75 -119.332031 212.75 -137.25 L 212.75 -393.453125 L 339.125 -393.453125 Z M 339.125 -136.6875 "/></g></g></g><g fill="#772943" fill-opacity="1"><g transform="translate(391.263689, 581.661831)"><g><path d="M 42.3125 -393.453125 L 168.703125 -393.453125 L 168.703125 -100.65625 L 370.578125 -100.65625 L 370.578125 0 L 42.3125 0 Z M 42.3125 -393.453125 "/></g></g></g><g fill="#772943" fill-opacity="1"><g transform="translate(37.268694, 595.244055)"><g><path d="M 339.125 -136.6875 C 339.125 -87.5 325.113281 -51.273438 297.09375 -28.015625 C 269.070312 -4.765625 228.753906 6.859375 176.140625 6.859375 C 123.523438 6.859375 83.207031 -4.765625 55.1875 -28.015625 C 27.164062 -51.273438 13.15625 -87.5 13.15625 -136.6875 L 13.15625 -141.828125 L 131.53125 -141.828125 L 131.53125 -137.25 C 131.53125 -119.332031 134.863281 -106.5625 141.53125 -98.9375 C 148.207031 -91.3125 158.410156 -87.5 172.140625 -87.5 C 185.867188 -87.5 196.066406 -91.3125 202.734375 -98.9375 C 209.410156 -106.5625 212.75 -119.332031 212.75 -137.25 L 212.75 -393.453125 L 339.125 -393.453125 Z M 339.125 -136.6875 "/></g></g></g><g fill="#772943" fill-opacity="1"><g transform="translate(391.263689, 595.244055)"><g><path d="M 42.3125 -393.453125 L 168.703125 -393.453125 L 168.703125 -100.65625 L 370.578125 -100.65625 L 370.578125 0 L 42.3125 0 Z M 42.3125 -393.453125 "/></g></g></g></svg>